<svg version="1.2" xmlns="http://www.w3.org/2000/svg" xmlns:xlink="http://www.w3.org/1999/xlink" overflow="visible" preserveAspectRatio="none" viewBox="0 0 780 280" xml:space="preserve" y="0px" x="0px" id="Layer_1_1554130366492" width="125" height="44.665809768638"><g transform="translate(1, 1)"><style type="text/css">
	.st0_1554130366492{fill-rule:evenodd;clip-rule:evenodd;fill:#878787;}
	.st1_1554130366492{fill-rule:evenodd;clip-rule:evenodd;fill:#9D9D9D;}
	.st2_1554130366492{fill-rule:evenodd;clip-rule:evenodd;fill:#B2B2B2;}
	.st3_1554130366492{fill-rule:evenodd;clip-rule:evenodd;fill:#737373;}
	.st4_1554130366492{fill-rule:evenodd;clip-rule:evenodd;fill:#5D5D5D;}
	.st5_1554130366492{fill-rule:evenodd;clip-rule:evenodd;fill:#00AA9F;}
	.st6_1554130366492{fill-rule:evenodd;clip-rule:evenodd;fill:#0A8C83;}
</style><g id="New_Symbol_6_1554130366492">
</g><polygon points="6.3,263.8 86.7,263.8 86.7,183.4 6.3,183.4 6.3,263.8" class="st0_1554130366492" vector-effect="non-scaling-stroke"/><polygon points="6.3,178 86.7,178 86.7,97.6 6.3,97.6 6.3,178" class="st1_1554130366492" vector-effect="non-scaling-stroke"/><polygon points="6.3,92.2 86.7,92.2 86.7,11.8 6.3,11.8 6.3,92.2" class="st2_1554130366492" vector-effect="non-scaling-stroke"/><polygon points="92.1,11.8 172.5,92.2 92.1,92.2 92.1,11.8" class="st0_1554130366492" vector-effect="non-scaling-stroke"/><polygon points="92.1,178 172.5,178 172.5,97.6 92.1,97.6 92.1,178" class="st3_1554130366492" vector-effect="non-scaling-stroke"/><polygon points="92.1,183.4 172.5,183.4 172.5,263.8 92.1,183.4" class="st4_1554130366492" vector-effect="non-scaling-stroke"/><polygon points="177.9,263.8 258.3,263.8 258.3,183.4 177.9,183.4 177.9,263.8" class="st0_1554130366492" vector-effect="non-scaling-stroke"/><polygon points="177.9,178 258.3,178 258.3,97.6 177.9,97.6 177.9,178" class="st1_1554130366492" vector-effect="non-scaling-stroke"/><polygon points="177.9,92.2 258.3,92.2 258.3,11.8 177.9,11.8 177.9,92.2" class="st2_1554130366492" vector-effect="non-scaling-stroke"/><polygon points="541,258 621.4,258 621.4,179.4 541,179.4 541,258" class="st5_1554130366492" vector-effect="non-scaling-stroke"/><polygon points="541,174.6 621.4,174.6 621.4,96 541,96 541,174.6" class="st6_1554130366492" vector-effect="non-scaling-stroke"/><polygon points="541,90.6 621.4,90.6 621.4,12 541,12 541,90.6" class="st5_1554130366492" vector-effect="non-scaling-stroke"/><polygon points="626.5,174.6 706.9,174.6 706.9,96 626.5,96 626.5,174.6" class="st6_1554130366492" vector-effect="non-scaling-stroke"/><polygon points="626.5,90.6 706.9,90.6 706.9,12 626.5,12 626.5,90.6" class="st6_1554130366492" vector-effect="non-scaling-stroke"/><polygon points="400.2,192.1 400.2,78.4 343.3,135.2 400.2,192.1" class="st6_1554130366492" vector-effect="non-scaling-stroke"/><polygon points="406.2,192.1 406.2,78.4 463,135.2 406.2,192.1" class="st6_1554130366492" vector-effect="non-scaling-stroke"/><polygon points="528.8,12.8 471.8,12.8 411.9,74.6 468.8,131.4 528.8,71.7" class="st5_1554130366492" vector-effect="non-scaling-stroke"/><polygon points="528.8,258 471.8,257.9 411.9,196.2 468.8,139.3 528.8,199" class="st5_1554130366492" vector-effect="non-scaling-stroke"/><polygon points="277.9,258 334.9,257.9 394.8,196.2 337.9,139.3 277.9,199" class="st5_1554130366492" vector-effect="non-scaling-stroke"/><polygon points="277.9,12.8 334.9,12.8 394.8,74.6 337.9,131.4 277.9,71.7" class="st5_1554130366492" vector-effect="non-scaling-stroke"/><path d="M774,59.7c-15.7-21.3-37.4-38-62.7-47.7v78.5H774V59.7z" class="st5_1554130366492" vector-effect="non-scaling-stroke"/><path d="M774,96h-62.7v78.5c25.3-9.7,47-26.4,62.7-47.7V96z" class="st5_1554130366492" vector-effect="non-scaling-stroke"/></g></svg>