<?xml version="1.0" encoding="utf-8"?>
<!-- Generator: Adobe Illustrator 21.1.0, SVG Export Plug-In . SVG Version: 6.00 Build 0)  -->
<svg version="1.1" id="Camada_1" xmlns="http://www.w3.org/2000/svg" xmlns:xlink="http://www.w3.org/1999/xlink" x="0px" y="0px"
	 viewBox="0 0 732.2 520.5" style="enable-background:new 0 0 732.2 520.5;" xml:space="preserve">
<style type="text/css">
	.st0{display:none;fill:#010116;stroke:#000000;stroke-miterlimit:10;}
	.st1{display:none;opacity:0.38;}
	.st2{display:inline;fill:none;stroke:#D613A8;stroke-width:2;stroke-linecap:round;stroke-linejoin:round;stroke-miterlimit:10;}
	
		.st3{display:none;opacity:0.41;fill:none;stroke:#D613A8;stroke-width:2;stroke-linecap:round;stroke-linejoin:round;stroke-miterlimit:10;enable-background:new    ;}
	.st4{fill:#6EE8FC;}
	.st5{opacity:0.3;fill:url(#SVGID_1_);enable-background:new    ;}
	.st6{opacity:0.3;fill:url(#SVGID_2_);enable-background:new    ;}
	.st7{opacity:0.3;fill:url(#SVGID_3_);enable-background:new    ;}
	.st8{fill:url(#SVGID_4_);}
	.st9{fill:url(#SVGID_5_);}
	.st10{fill:url(#SVGID_6_);}
	.st11{fill:url(#SVGID_7_);}
	.st12{fill:url(#SVGID_8_);}
	.st13{opacity:0.5;fill:#010116;enable-background:new    ;}
	.st14{fill:#312A91;}
	.st15{opacity:0.8;fill:url(#SVGID_9_);enable-background:new    ;}
	.st16{fill:url(#SVGID_10_);}
	.st17{opacity:0.7;fill:url(#SVGID_11_);enable-background:new    ;}
	.st18{opacity:0.4;}
	.st19{opacity:0.5;fill:url(#SVGID_12_);enable-background:new    ;}
	.st20{opacity:0.7;fill:url(#SVGID_13_);enable-background:new    ;}
	.st21{opacity:0.5;fill:url(#SVGID_14_);enable-background:new    ;}
	.st22{opacity:0.8;fill:url(#SVGID_15_);enable-background:new    ;}
	.st23{opacity:0.9;fill:url(#SVGID_16_);enable-background:new    ;}
	.st24{fill:#42E8E0;}
	.st25{opacity:0.9;fill:url(#SVGID_17_);enable-background:new    ;}
	.st26{fill:url(#SVGID_18_);}
	.st27{opacity:0.8;fill:url(#SVGID_19_);enable-background:new    ;}
	.st28{opacity:0.8;fill:url(#SVGID_20_);enable-background:new    ;}
	.st29{fill:url(#SVGID_21_);}
	.st30{opacity:0.7;fill:url(#SVGID_22_);enable-background:new    ;}
	.st31{opacity:0.5;fill:url(#SVGID_23_);enable-background:new    ;}
	.st32{opacity:0.7;fill:url(#SVGID_24_);enable-background:new    ;}
	.st33{opacity:0.5;fill:url(#SVGID_25_);enable-background:new    ;}
	.st34{opacity:0.8;fill:url(#SVGID_26_);enable-background:new    ;}
	.st35{opacity:0.9;fill:url(#SVGID_27_);enable-background:new    ;}
	.st36{opacity:0.7;fill:url(#SVGID_28_);enable-background:new    ;}
	.st37{fill:#010116;}
	.st38{clip-path:url(#SVGID_30_);}
	.st39{clip-path:url(#SVGID_32_);}
	.st40{opacity:0.2;fill:#020001;enable-background:new    ;}
	.st41{opacity:0.6;fill:#020001;enable-background:new    ;}
	.st42{fill:#020001;}
	.st43{opacity:0.5;fill:#42E8E0;enable-background:new    ;}
	.st44{fill-rule:evenodd;clip-rule:evenodd;fill:#878787;}
	.st45{fill-rule:evenodd;clip-rule:evenodd;fill:#9D9D9D;}
	.st46{fill-rule:evenodd;clip-rule:evenodd;fill:#B2B2B2;}
	.st47{fill-rule:evenodd;clip-rule:evenodd;fill:#737373;}
	.st48{fill-rule:evenodd;clip-rule:evenodd;fill:#5D5D5D;}
	.st49{fill-rule:evenodd;clip-rule:evenodd;fill:#00AA9F;}
	.st50{fill-rule:evenodd;clip-rule:evenodd;fill:#0A8C83;}
</style>
<rect x="-268.3" y="-247" class="st0" width="1024" height="768"/>
<g class="st1">
	<polyline class="st2" points="108,27.8 101.5,30 103.7,36.6 	"/>
	<polyline class="st2" points="118.8,33.4 121,40 114.5,42.1 	"/>
	<line class="st2" x1="106.9" y1="39.2" x2="115" y2="31.4"/>
</g>
<line class="st3" x1="244.8" y1="249.7" x2="256.8" y2="256.5"/>
<path class="st4" d="M385.9,425.1c-7.5,0-14.8-1.6-20.2-4.7L130.2,284.5c-5.3-3-8.1-7.2-8.1-11.9c0-5.5,4.2-11.2,11.5-15.4
	l228.9-132.1c13.7-7.9,34.5-8.7,46.4-1.9l235.5,135.9c5.3,3,8.1,7.2,8.1,11.9c0,5.5-4.2,11.2-11.5,15.4L412.1,418.6
	C404.6,423,395,425.1,385.9,425.1z M366.1,419.8c11.6,6.7,32,5.8,45.5-1.9l228.9-132.2c7-4.1,11-9.4,11-14.6c0-4.3-2.7-8.3-7.7-11.2
	L408.4,124c-11.6-6.7-32-5.8-45.5,1.9L134,258c-7,4.1-11,9.4-11,14.6c0,4.3,2.7,8.3,7.7,11.2L366.1,419.8z"/>
<radialGradient id="SVGID_1_" cx="-940.212" cy="821.4411" r="158.9535" gradientTransform="matrix(0.866 0.5 -0.866 0.5 1852.7915 200.2354)" gradientUnits="userSpaceOnUse">
	<stop  offset="0" style="stop-color:#42E8E0"/>
	<stop  offset="3.848259e-02" style="stop-color:#3ACCC8"/>
	<stop  offset="0.1127" style="stop-color:#2D9D9E"/>
	<stop  offset="0.1914" style="stop-color:#21737A"/>
	<stop  offset="0.2734" style="stop-color:#17505B"/>
	<stop  offset="0.3594" style="stop-color:#0F3342"/>
	<stop  offset="0.4509" style="stop-color:#091D2E"/>
	<stop  offset="0.5504" style="stop-color:#040D21"/>
	<stop  offset="0.664" style="stop-color:#020419"/>
	<stop  offset="0.8226" style="stop-color:#010116"/>
</radialGradient>
<path class="st5" d="M464.9,220.3c-76,43.9-199.3,43.9-275.4,0s-76-115.1,0-158.9c76-43.9,199.3-43.9,275.4,0
	C540.9,105.2,541,176.4,464.9,220.3z"/>
<radialGradient id="SVGID_2_" cx="-614.2916" cy="904.5207" r="158.9535" gradientTransform="matrix(0.866 0.5 -0.866 0.5 1852.7915 200.2354)" gradientUnits="userSpaceOnUse">
	<stop  offset="0" style="stop-color:#42E8E0"/>
	<stop  offset="3.848259e-02" style="stop-color:#3ACCC8"/>
	<stop  offset="0.1127" style="stop-color:#2D9D9E"/>
	<stop  offset="0.1914" style="stop-color:#21737A"/>
	<stop  offset="0.2734" style="stop-color:#17505B"/>
	<stop  offset="0.3594" style="stop-color:#0F3342"/>
	<stop  offset="0.4509" style="stop-color:#091D2E"/>
	<stop  offset="0.5504" style="stop-color:#040D21"/>
	<stop  offset="0.664" style="stop-color:#020419"/>
	<stop  offset="0.8226" style="stop-color:#010116"/>
</radialGradient>
<path class="st6" d="M675.2,424.8c-76,43.9-199.3,43.9-275.4,0s-76-115.1,0-158.9c76-43.9,199.3-43.9,275.4,0
	C751.3,309.7,751.3,380.9,675.2,424.8z"/>
<radialGradient id="SVGID_3_" cx="-940.5658" cy="1025.9949" r="122.2643" gradientTransform="matrix(0.866 0.5 -0.866 0.5 1852.7915 200.2354)" gradientUnits="userSpaceOnUse">
	<stop  offset="0" style="stop-color:#42E8E0"/>
	<stop  offset="3.848259e-02" style="stop-color:#3ACCC8"/>
	<stop  offset="0.1127" style="stop-color:#2D9D9E"/>
	<stop  offset="0.1914" style="stop-color:#21737A"/>
	<stop  offset="0.2734" style="stop-color:#17505B"/>
	<stop  offset="0.3594" style="stop-color:#0F3342"/>
	<stop  offset="0.4509" style="stop-color:#091D2E"/>
	<stop  offset="0.5504" style="stop-color:#040D21"/>
	<stop  offset="0.664" style="stop-color:#020419"/>
	<stop  offset="0.8226" style="stop-color:#010116"/>
</radialGradient>
<path class="st7" d="M255.6,304.1c-58.4,33.7-153.2,33.7-211.7,0c-58.4-33.7-58.4-88.5,0-122.3s153.2-33.7,211.7,0
	C314.1,215.6,314.1,270.3,255.6,304.1z"/>
<radialGradient id="SVGID_4_" cx="328.9397" cy="663.8419" r="17.7802" gradientTransform="matrix(1 0 0 1 0 -518.9419)" gradientUnits="userSpaceOnUse">
	<stop  offset="0" style="stop-color:#42E8E0"/>
	<stop  offset="3.848259e-02" style="stop-color:#3ACCC8"/>
	<stop  offset="0.1127" style="stop-color:#2D9D9E"/>
	<stop  offset="0.1914" style="stop-color:#21737A"/>
	<stop  offset="0.2734" style="stop-color:#17505B"/>
	<stop  offset="0.3594" style="stop-color:#0F3342"/>
	<stop  offset="0.4509" style="stop-color:#091D2E"/>
	<stop  offset="0.5504" style="stop-color:#040D21"/>
	<stop  offset="0.664" style="stop-color:#020419"/>
	<stop  offset="0.8226" style="stop-color:#010116"/>
</radialGradient>
<circle class="st8" cx="328.9" cy="144.9" r="17.8"/>
<circle class="st4" cx="328.9" cy="144.9" r="5.1"/>
<radialGradient id="SVGID_5_" cx="149.7" cy="767.5419" r="17.8" gradientTransform="matrix(1 0 0 1 0 -518.9419)" gradientUnits="userSpaceOnUse">
	<stop  offset="0" style="stop-color:#42E8E0"/>
	<stop  offset="3.848259e-02" style="stop-color:#3ACCC8"/>
	<stop  offset="0.1127" style="stop-color:#2D9D9E"/>
	<stop  offset="0.1914" style="stop-color:#21737A"/>
	<stop  offset="0.2734" style="stop-color:#17505B"/>
	<stop  offset="0.3594" style="stop-color:#0F3342"/>
	<stop  offset="0.4509" style="stop-color:#091D2E"/>
	<stop  offset="0.5504" style="stop-color:#040D21"/>
	<stop  offset="0.664" style="stop-color:#020419"/>
	<stop  offset="0.8226" style="stop-color:#010116"/>
</radialGradient>
<circle class="st9" cx="149.7" cy="248.6" r="17.8"/>
<circle class="st4" cx="149.7" cy="248.6" r="5.1"/>
<radialGradient id="SVGID_6_" cx="538.8" cy="863.9419" r="17.8" gradientTransform="matrix(1 0 0 1 0 -518.9419)" gradientUnits="userSpaceOnUse">
	<stop  offset="0" style="stop-color:#42E8E0"/>
	<stop  offset="3.848259e-02" style="stop-color:#3ACCC9"/>
	<stop  offset="0.1127" style="stop-color:#2E9DA1"/>
	<stop  offset="0.1914" style="stop-color:#22737E"/>
	<stop  offset="0.2734" style="stop-color:#185060"/>
	<stop  offset="0.3594" style="stop-color:#113348"/>
	<stop  offset="0.4509" style="stop-color:#0B1D35"/>
	<stop  offset="0.5504" style="stop-color:#060D28"/>
	<stop  offset="0.664" style="stop-color:#040420"/>
	<stop  offset="0.8226" style="stop-color:#03011E"/>
</radialGradient>
<circle class="st10" cx="538.8" cy="345" r="17.8"/>
<circle class="st4" cx="538.8" cy="345" r="5.1"/>
<radialGradient id="SVGID_7_" cx="571.7" cy="844.5419" r="17.7644" gradientTransform="matrix(1 0 0 1 0 -518.9419)" gradientUnits="userSpaceOnUse">
	<stop  offset="0" style="stop-color:#42E8E0"/>
	<stop  offset="3.848259e-02" style="stop-color:#3ACCC9"/>
	<stop  offset="0.1127" style="stop-color:#2E9DA1"/>
	<stop  offset="0.1914" style="stop-color:#22737E"/>
	<stop  offset="0.2734" style="stop-color:#185060"/>
	<stop  offset="0.3594" style="stop-color:#113348"/>
	<stop  offset="0.4509" style="stop-color:#0B1D35"/>
	<stop  offset="0.5504" style="stop-color:#060D28"/>
	<stop  offset="0.664" style="stop-color:#040420"/>
	<stop  offset="0.8226" style="stop-color:#03011E"/>
</radialGradient>
<circle class="st11" cx="571.7" cy="325.6" r="17.8"/>
<circle class="st4" cx="571.7" cy="325.6" r="5.1"/>
<radialGradient id="SVGID_8_" cx="604.7" cy="825.3419" r="17.7423" gradientTransform="matrix(1 0 0 1 0 -518.9419)" gradientUnits="userSpaceOnUse">
	<stop  offset="0" style="stop-color:#42E8E0"/>
	<stop  offset="3.848259e-02" style="stop-color:#3ACCC8"/>
	<stop  offset="0.1127" style="stop-color:#2D9D9E"/>
	<stop  offset="0.1914" style="stop-color:#21737A"/>
	<stop  offset="0.2734" style="stop-color:#17505B"/>
	<stop  offset="0.3594" style="stop-color:#0F3342"/>
	<stop  offset="0.4509" style="stop-color:#091D2E"/>
	<stop  offset="0.5504" style="stop-color:#040D21"/>
	<stop  offset="0.664" style="stop-color:#020419"/>
	<stop  offset="0.8226" style="stop-color:#010116"/>
</radialGradient>
<circle class="st12" cx="604.7" cy="306.4" r="17.8"/>
<circle class="st4" cx="604.7" cy="306.4" r="5.1"/>
<path class="st13" d="M558.5,278.9l119-68.7c1.5-0.8,1.3-2.4-0.4-3.3L498.2,103.4c-1.7-1-4.3-1.1-5.8-0.2l-119,68.7
	c-1.5,0.8-1.3,2.4,0.4,3.3l178.9,103.5C554.4,279.6,557,279.8,558.5,278.9z"/>
<g>
	<path class="st14" d="M372.4,131.4l5,0.9l114.9-66.4c1.5-0.8,4.1-0.7,5.8,0.2l171.5,99.2l8.8,1.6v2.9l0,0c0,0.5-0.3,1.1-1,1.5
		l-119,68.7c-1.5,0.8-4.1,0.7-5.8-0.2L373.8,136.2c-1-0.5-1.4-1.2-1.4-1.8l0,0V131.4z"/>
	
		<radialGradient id="SVGID_9_" cx="1668.6302" cy="653.5134" r="350.5631" gradientTransform="matrix(-1 0 0 1 2014.1287 -518.9419)" gradientUnits="userSpaceOnUse">
		<stop  offset="0" style="stop-color:#42E8E0"/>
		<stop  offset="1.567662e-02" style="stop-color:#40D8D7"/>
		<stop  offset="6.066751e-02" style="stop-color:#3AAFC0"/>
		<stop  offset="0.1112" style="stop-color:#3589AC"/>
		<stop  offset="0.1662" style="stop-color:#30699A"/>
		<stop  offset="0.227" style="stop-color:#2C4D8B"/>
		<stop  offset="0.2957" style="stop-color:#29377F"/>
		<stop  offset="0.3758" style="stop-color:#272675"/>
		<stop  offset="0.475" style="stop-color:#251B6F"/>
		<stop  offset="0.614" style="stop-color:#24146B"/>
		<stop  offset="1" style="stop-color:#24126A"/>
	</radialGradient>
	<path class="st15" d="M372.4,131.4l5,0.9l114.9-66.4c1.5-0.8,4.1-0.7,5.8,0.2l171.5,99.2l8.8,1.6v2.9l0,0c0,0.5-0.3,1.1-1,1.5
		l-119,68.7c-1.5,0.8-4.1,0.7-5.8-0.2L373.8,136.2c-1-0.5-1.4-1.2-1.4-1.8l0,0V131.4z"/>
	
		<radialGradient id="SVGID_10_" cx="1443.2814" cy="767.9392" r="426.6847" gradientTransform="matrix(-1 0 0 1 2014.1287 -518.9419)" gradientUnits="userSpaceOnUse">
		<stop  offset="0" style="stop-color:#42E8E0"/>
		<stop  offset="0.1022" style="stop-color:#3CCACE"/>
		<stop  offset="0.3445" style="stop-color:#2F87A5"/>
		<stop  offset="0.564" style="stop-color:#255385"/>
		<stop  offset="0.7534" style="stop-color:#1E2D6E"/>
		<stop  offset="0.905" style="stop-color:#1A1660"/>
		<stop  offset="1" style="stop-color:#180D5B"/>
	</radialGradient>
	<path class="st16" d="M373.8,134.4l178.9,103.5c1.7,1,4.3,1.1,5.8,0.2l119-68.7c0.7-0.4,1-0.9,1-1.5l0,0v0.7l0,0
		c0,0.5-0.3,1.1-1,1.5l-119,68.7c-1.5,0.8-4.1,0.7-5.8-0.2L373.8,135.1c-1-0.5-1.4-1.2-1.4-1.8l0,0v-0.7l0,0
		C372.4,133.2,372.9,133.9,373.8,134.4z"/>
	<path class="st14" d="M558.5,236.9l119-68.7c1.5-0.8,1.3-2.4-0.4-3.3L498.2,61.5c-1.7-1-4.3-1.1-5.8-0.2l-119,68.7
		c-1.5,0.8-1.3,2.4,0.4,3.3l178.9,103.5C554.4,237.7,557,237.8,558.5,236.9z"/>
	
		<linearGradient id="SVGID_11_" gradientUnits="userSpaceOnUse" x1="1335.6182" y1="668.047" x2="1641.7391" y2="668.047" gradientTransform="matrix(-1 0 0 1 2014.1287 -518.9419)">
		<stop  offset="0" style="stop-color:#180D5B"/>
		<stop  offset="9.497967e-02" style="stop-color:#1A1660"/>
		<stop  offset="0.2466" style="stop-color:#1E2D6E"/>
		<stop  offset="0.436" style="stop-color:#255385"/>
		<stop  offset="0.6555" style="stop-color:#2F87A5"/>
		<stop  offset="0.8978" style="stop-color:#3CCACE"/>
		<stop  offset="1" style="stop-color:#42E8E0"/>
	</linearGradient>
	<path class="st17" d="M558.5,236.9l119-68.7c1.5-0.8,1.3-2.4-0.4-3.3L498.2,61.5c-1.7-1-4.3-1.1-5.8-0.2l-119,68.7
		c-1.5,0.8-1.3,2.4,0.4,3.3l178.9,103.5C554.4,237.7,557,237.8,558.5,236.9z"/>
</g>
<g class="st18">
	
		<radialGradient id="SVGID_12_" cx="1332.603" cy="696.4562" r="123.3669" gradientTransform="matrix(-1 0 0 1 2014.1287 -518.9419)" gradientUnits="userSpaceOnUse">
		<stop  offset="0" style="stop-color:#42E8E0"/>
		<stop  offset="0.1022" style="stop-color:#3CCACE"/>
		<stop  offset="0.3445" style="stop-color:#2F87A5"/>
		<stop  offset="0.564" style="stop-color:#255385"/>
		<stop  offset="0.7534" style="stop-color:#1E2D6E"/>
		<stop  offset="0.905" style="stop-color:#1A1660"/>
		<stop  offset="1" style="stop-color:#180D5B"/>
	</radialGradient>
	<path class="st19" d="M372.4,130.8l5,0.9l114.9-66.4c1.5-0.8,4.1-0.7,5.8,0.2l171.5,99.2l8.8,1.6v0.5l0,0c0,0.5-0.3,1.1-1,1.5
		l-119,68.7c-1.5,0.8-4.1,0.7-5.8-0.2L373.8,133.3c-1-0.5-1.4-1.2-1.4-1.8l0,0V130.8z"/>
	
		<radialGradient id="SVGID_13_" cx="1339.5055" cy="669.005" r="254.2919" gradientTransform="matrix(-1 0 0 1 2014.1287 -518.9419)" gradientUnits="userSpaceOnUse">
		<stop  offset="0" style="stop-color:#42E8E0"/>
		<stop  offset="0.1022" style="stop-color:#3CCACE"/>
		<stop  offset="0.3445" style="stop-color:#2F87A5"/>
		<stop  offset="0.564" style="stop-color:#255385"/>
		<stop  offset="0.7534" style="stop-color:#1E2D6E"/>
		<stop  offset="0.905" style="stop-color:#1A1660"/>
		<stop  offset="1" style="stop-color:#180D5B"/>
	</radialGradient>
	<path class="st20" d="M558.5,236.3l119-68.7c1.5-0.8,1.3-2.4-0.4-3.3L498.2,60.9c-1.7-1-4.3-1.1-5.8-0.2l-119,68.7
		c-1.5,0.8-1.3,2.4,0.4,3.3l178.9,103.5C554.4,237,557,237.2,558.5,236.3z"/>
	<path class="st14" d="M558.5,236.3l119-68.7c1.5-0.8,1.3-2.4-0.4-3.3L498.2,60.9c-1.7-1-4.3-1.1-5.8-0.2l-119,68.7
		c-1.5,0.8-1.3,2.4,0.4,3.3l178.9,103.5C554.4,237,557,237.2,558.5,236.3z"/>
</g>
<radialGradient id="SVGID_14_" cx="1359.6774" cy="681.2261" r="208.1037" gradientTransform="matrix(-1 0 0 1 2014.1287 -518.9419)" gradientUnits="userSpaceOnUse">
	<stop  offset="0" style="stop-color:#42E8E0"/>
	<stop  offset="0.1022" style="stop-color:#3CCACE"/>
	<stop  offset="0.3445" style="stop-color:#2F87A5"/>
	<stop  offset="0.564" style="stop-color:#255385"/>
	<stop  offset="0.7534" style="stop-color:#1E2D6E"/>
	<stop  offset="0.905" style="stop-color:#1A1660"/>
	<stop  offset="1" style="stop-color:#180D5B"/>
</radialGradient>
<path class="st21" d="M558.5,236.3l119-68.7c1.5-0.8,1.3-2.4-0.4-3.3L498.2,60.9c-1.7-1-4.3-1.1-5.8-0.2l-119,68.7
	c-1.5,0.8-1.3,2.4,0.4,3.3l178.9,103.5C554.4,237,557,237.2,558.5,236.3z"/>
<radialGradient id="SVGID_15_" cx="1609.1959" cy="568.323" r="415.1884" gradientTransform="matrix(-1 0 0 1 2014.1287 -518.9419)" gradientUnits="userSpaceOnUse">
	<stop  offset="0" style="stop-color:#42E8E0"/>
	<stop  offset="0.1298" style="stop-color:#3BD1CC"/>
	<stop  offset="0.403" style="stop-color:#2B9597"/>
	<stop  offset="0.7935" style="stop-color:#103644"/>
	<stop  offset="1" style="stop-color:#010116"/>
</radialGradient>
<path class="st22" d="M558.5,236.3l119-68.7c1.5-0.8,1.3-2.4-0.4-3.3L498.2,60.9c-1.7-1-4.3-1.1-5.8-0.2l-119,68.7
	c-1.5,0.8-1.3,2.4,0.4,3.3l178.9,103.5C554.4,237,557,237.2,558.5,236.3z"/>
<radialGradient id="SVGID_16_" cx="1332.8458" cy="681.2254" r="365.5387" gradientTransform="matrix(-1 0 0 1 2014.1287 -518.9419)" gradientUnits="userSpaceOnUse">
	<stop  offset="0" style="stop-color:#42E8E0"/>
	<stop  offset="0.1022" style="stop-color:#3CCACE"/>
	<stop  offset="0.3445" style="stop-color:#2F87A5"/>
	<stop  offset="0.564" style="stop-color:#255385"/>
	<stop  offset="0.7534" style="stop-color:#1E2D6E"/>
	<stop  offset="0.905" style="stop-color:#1A1660"/>
	<stop  offset="1" style="stop-color:#180D5B"/>
</radialGradient>
<path class="st23" d="M557.8,236.3l118.9-68.7c1.6-1,1.8-2-0.4-3.3L497.5,60.8c-0.7-0.4-1.7-0.7-2.7-0.8c1.2,0,2.4,0.3,3.3,0.8
	L677,164.3c1.7,1,1.8,2.4,0.4,3.3l-119,68.7c-0.8,0.4-1.9,0.7-3.1,0.5C556.3,236.9,557.2,236.7,557.8,236.3z"/>
<g>
	<g>
		<path class="st24" d="M485.1,170.6l48.3,27.9c0.4,0.3,1.2,0.3,1.6,0.1l4.8-2.8c0.4-0.2,0.4-0.7-0.1-0.9L491.3,167
			c-0.4-0.3-1.2-0.3-1.6-0.1l-4.8,2.8C484.6,170,484.6,170.3,485.1,170.6z"/>
		<path class="st24" d="M449.3,149.9l4.6,2.7c0.4,0.3,1.2,0.3,1.6,0.1l4.8-2.8c0.4-0.2,0.4-0.7-0.1-0.9l-4.6-2.7
			c-0.4-0.3-1.2-0.3-1.6-0.1l-4.8,2.8C448.8,149.3,448.8,149.7,449.3,149.9z"/>
		<path class="st24" d="M440.2,144.7l4.6,2.7c0.4,0.3,1.2,0.3,1.6,0.1l4.8-2.8c0.4-0.2,0.4-0.7-0.1-0.9l-4.6-2.7
			c-0.4-0.3-1.2-0.3-1.6-0.1l-4.8,2.8C439.7,144,439.7,144.4,440.2,144.7z"/>
		<path class="st24" d="M448.3,140l4.6,2.7c0.4,0.3,1.2,0.3,1.6,0.1l4.8-2.8c0.4-0.2,0.4-0.7-0.1-0.9l-4.6-2.7
			c-0.4-0.3-1.2-0.3-1.6-0.1l-4.8,2.8C447.8,139.3,447.8,139.8,448.3,140z"/>
		<path class="st24" d="M431,139.3l4.6,2.7c0.4,0.3,1.2,0.3,1.6,0.1l4.8-2.8c0.4-0.2,0.4-0.7-0.1-0.9l-4.6-2.7
			c-0.4-0.3-1.2-0.3-1.6-0.1l-4.8,2.8C430.5,138.7,430.5,139,431,139.3z"/>
	</g>
	<g>
		<path class="st24" d="M551.2,208.7l8.7,5c0.4,0.3,1.2,0.3,1.6,0.1l4.8-2.8c0.4-0.2,0.4-0.7-0.1-0.9l-8.7-5
			c-0.4-0.3-1.2-0.3-1.6-0.1l-4.8,2.8C550.7,208.1,550.7,208.5,551.2,208.7z"/>
		<path class="st24" d="M538,201.1l8.7,5c0.4,0.3,1.2,0.3,1.6,0.1l4.8-2.8c0.4-0.2,0.4-0.7-0.1-0.9l-8.7-5c-0.4-0.3-1.2-0.3-1.6-0.1
			l-4.8,2.8C537.4,200.4,537.4,200.8,538,201.1z"/>
		<path class="st24" d="M471.5,162.7l8.7,5c0.4,0.3,1.2,0.3,1.6,0.1l4.8-2.8c0.4-0.2,0.4-0.7-0.1-0.9l-8.7-5
			c-0.4-0.3-1.2-0.3-1.6-0.1l-4.8,2.8C470.9,162,471,162.5,471.5,162.7z"/>
		<path class="st24" d="M458.2,155.1l8.7,5c0.4,0.3,1.2,0.3,1.6,0.1l4.8-2.8c0.4-0.2,0.4-0.7-0.1-0.9l-8.7-5
			c-0.4-0.3-1.2-0.3-1.6-0.1l-4.8,2.8C457.7,154.4,457.8,154.8,458.2,155.1z"/>
		<path class="st24" d="M456.3,124.8l128.9,74.5c0.4,0.3,1.2,0.3,1.6,0.1l4.8-2.8c0.4-0.2,0.4-0.7-0.1-0.9l-128.8-74.5
			c-0.4-0.3-1.2-0.3-1.6-0.1l-4.8,2.8C455.8,124,455.8,124.5,456.3,124.8z"/>
		<path class="st24" d="M447.6,129.7l128.9,74.5c0.4,0.3,1.2,0.3,1.6,0.1l4.8-2.8c0.4-0.2,0.4-0.7-0.1-0.9L454,126.1
			c-0.4-0.3-1.2-0.3-1.6-0.1l-4.8,2.8C447.1,129.1,447.2,129.4,447.6,129.7z"/>
		<path class="st24" d="M457.4,145.3L568,209.1c0.4,0.3,1.2,0.3,1.6,0.1l4.8-2.8c0.4-0.2,0.4-0.7-0.1-0.9l-110.6-63.8
			c-0.4-0.3-1.2-0.3-1.6-0.1l-4.8,2.8C456.9,144.6,456.9,145,457.4,145.3z"/>
		<path class="st24" d="M556.3,162.3l4.6,2.7c0.4,0.3,1.2,0.3,1.6,0.1l4.8-2.8c0.4-0.2,0.4-0.7-0.1-0.9l-4.6-2.7
			c-0.4-0.3-1.2-0.3-1.6-0.1l-4.8,2.8C555.8,161.6,555.9,162,556.3,162.3z"/>
		<path class="st24" d="M536.5,150.9l4.6,2.7c0.4,0.3,1.2,0.3,1.6,0.1l4.8-2.8c0.4-0.2,0.4-0.7-0.1-0.9l-4.6-2.7
			c-0.4-0.3-1.2-0.3-1.6-0.1l-4.8,2.8C536,150.2,536.1,150.6,536.5,150.9z"/>
		<path class="st24" d="M528,145.9l4.6,2.7c0.4,0.3,1.2,0.3,1.6,0.1l4.8-2.8c0.4-0.2,0.4-0.7-0.1-0.9l-4.6-2.7
			c-0.4-0.3-1.2-0.3-1.6-0.1l-4.8,2.8C527.4,145.3,527.5,145.6,528,145.9z"/>
		<path class="st24" d="M519.4,141l4.6,2.7c0.4,0.3,1.2,0.3,1.6,0.1l4.8-2.8c0.4-0.2,0.4-0.7-0.1-0.9l-4.6-2.7
			c-0.4-0.3-1.2-0.3-1.6-0.1l-4.8,2.8C518.9,140.3,518.9,140.7,519.4,141z"/>
		<path class="st24" d="M510.8,136l4.6,2.7c0.4,0.3,1.2,0.3,1.6,0.1l4.8-2.8c0.4-0.2,0.4-0.7-0.1-0.9l-4.6-2.7
			c-0.4-0.3-1.2-0.3-1.6-0.1l-4.8,2.8C510.3,135.3,510.3,135.7,510.8,136z"/>
		<path class="st24" d="M491,124.5l4.6,2.7c0.4,0.3,1.2,0.3,1.6,0.1l4.8-2.8c0.4-0.2,0.4-0.7-0.1-0.9l-4.6-2.7
			c-0.4-0.3-1.2-0.3-1.6-0.1l-4.8,2.8C490.5,123.9,490.5,124.3,491,124.5z"/>
		<path class="st24" d="M439.3,134.5l4.6,2.7c0.4,0.3,1.2,0.3,1.6,0.1l4.8-2.8c0.4-0.2,0.4-0.7-0.1-0.9l-4.6-2.7
			c-0.4-0.3-1.2-0.3-1.6-0.1l-4.8,2.8C438.8,133.9,438.8,134.2,439.3,134.5z"/>
		<path class="st24" d="M482.4,119.6l4.6,2.7c0.4,0.3,1.2,0.3,1.6,0.1l4.8-2.8c0.4-0.2,0.4-0.7-0.1-0.9l-4.6-2.7
			c-0.4-0.3-1.2-0.3-1.6-0.1l-4.8,2.8C481.9,118.9,482,119.4,482.4,119.6z"/>
		<path class="st24" d="M473.8,114.6l4.6,2.7c0.4,0.3,1.2,0.3,1.6,0.1l4.8-2.8c0.4-0.2,0.4-0.7-0.1-0.9L480,111
			c-0.4-0.3-1.2-0.3-1.6-0.1l-4.8,2.8C473.3,114,473.4,114.4,473.8,114.6z"/>
	</g>
</g>
<path class="st24" d="M546.7,167.7l28.8,16.3c0.4,0.3,1.2,0.3,1.6,0.1l4.8-2.8c0.4-0.2,0.4-0.7-0.1-0.9L553,164.1
	c-0.4-0.3-1.2-0.3-1.6-0.1l-4.8,2.8C546.2,167.1,546.2,167.5,546.7,167.7z"/>
<path class="st24" d="M578.9,176.4l4.6,2.7c0.4,0.3,1.2,0.3,1.6,0.1l4.8-2.8c0.4-0.2,0.4-0.7-0.1-0.9l-4.6-2.7
	c-0.4-0.3-1.2-0.3-1.6-0.1l-4.8,2.8C578.4,175.7,578.5,176.1,578.9,176.4z"/>
<path class="st24" d="M555.8,163.2l19.1,10.9c0.4,0.3,1.2,0.3,1.6,0.1l4.8-2.8c0.4-0.2,0.4-0.7-0.1-0.9l-19-10.9
	c-0.4-0.3-1.2-0.3-1.6-0.1l-4.8,2.8C555.3,162.5,555.3,162.9,555.8,163.2z"/>
<path class="st14" d="M373.5,129.3L388.3,3c0-0.3,0.1-0.5,0.1-0.7l-1.3-0.6l3-1.7l0,0c1.3-0.7,2.9-0.8,4.3,0l177.2,102.4
	c1.7,1,2.6,2.8,2.4,4.7l-14.7,126.3c-0.1,1.6-1.1,2.7-2.4,3.3l-2.9,1.6l0.4-1.5c-0.4-0.1-0.9-0.2-1.3-0.5L376,134.1
	C374.3,133.1,373.3,131.2,373.5,129.3z"/>
<linearGradient id="SVGID_17_" gradientUnits="userSpaceOnUse" x1="1545.8466" y1="572.4723" x2="1527.2168" y2="792.6818" gradientTransform="matrix(-1 0 0 1 2014.1287 -518.9419)">
	<stop  offset="0" style="stop-color:#42E8E0"/>
	<stop  offset="7.396981e-02" style="stop-color:#3ED2D3"/>
	<stop  offset="0.2847" style="stop-color:#3297AF"/>
	<stop  offset="0.3474" style="stop-color:#2F87A5"/>
	<stop  offset="0.5646" style="stop-color:#255385"/>
	<stop  offset="0.7537" style="stop-color:#1E2D6E"/>
	<stop  offset="0.9051" style="stop-color:#1A1560"/>
	<stop  offset="1" style="stop-color:#180D5B"/>
</linearGradient>
<path class="st25" d="M373.5,129.3L388.3,3c0-0.3,0.1-0.5,0.1-0.7l-1.3-0.6l3-1.7l0,0c1.3-0.7,2.9-0.8,4.3,0l177.2,102.4
	c1.7,1,2.6,2.8,2.4,4.7l-14.7,126.3c-0.1,1.6-1.1,2.7-2.4,3.3l-2.9,1.6l0.4-1.5c-0.4-0.1-0.9-0.2-1.3-0.5L376,134.1
	C374.3,133.1,373.3,131.2,373.5,129.3z"/>
<linearGradient id="SVGID_18_" gradientUnits="userSpaceOnUse" x1="1443.1012" y1="639.0419" x2="1643.8855" y2="639.0419" gradientTransform="matrix(-1 0 0 1 2014.1287 -518.9419)">
	<stop  offset="0" style="stop-color:#2B237C"/>
	<stop  offset="1" style="stop-color:#180D5B"/>
</linearGradient>
<path class="st26" d="M372.7,136l177.2,102.4c2.7,1.6,6.1-0.1,6.4-3.2L571,108.9c0.2-1.9-0.7-3.8-2.4-4.7L391.4,1.8
	c-2.7-1.6-6.1,0.1-6.4,3.2l-14.7,126.3C370,133.2,370.9,135.1,372.7,136z"/>
<radialGradient id="SVGID_19_" cx="1675.4578" cy="601.7522" r="535.8632" gradientTransform="matrix(-1 0 0 1 2014.1287 -518.9419)" gradientUnits="userSpaceOnUse">
	<stop  offset="0" style="stop-color:#01A99F"/>
	<stop  offset="0.2089" style="stop-color:#017B79"/>
	<stop  offset="0.4721" style="stop-color:#01474F"/>
	<stop  offset="0.7013" style="stop-color:#012130"/>
	<stop  offset="0.885" style="stop-color:#01091D"/>
	<stop  offset="1" style="stop-color:#010116"/>
</radialGradient>
<path class="st27" d="M372.7,136l177.2,102.4c2.7,1.6,6.1-0.1,6.4-3.2L571,108.9c0.2-1.9-0.7-3.8-2.4-4.7L391.4,1.8
	c-2.7-1.6-6.1,0.1-6.4,3.2l-14.7,126.3C370,133.2,370.9,135.1,372.7,136z"/>
<path class="st24" d="M588.8,191.6l4.6,2.7c0.4,0.3,1.2,0.3,1.6,0.1l4.8-2.8c0.4-0.2,0.4-0.7-0.1-0.9l-4.6-2.7
	c-0.4-0.3-1.2-0.3-1.6-0.1l-4.8,2.8C588.3,190.9,588.4,191.3,588.8,191.6z"/>
<path class="st24" d="M596.9,186.9l4.6,2.7c0.4,0.3,1.2,0.3,1.6,0.1l4.8-2.8c0.4-0.2,0.4-0.7-0.1-0.9l-4.6-2.7
	c-0.4-0.3-1.2-0.3-1.6-0.1l-4.8,2.8C596.4,186.2,596.5,186.6,596.9,186.9z"/>
<path class="st24" d="M579.6,186.2l4.6,2.7c0.4,0.3,1.2,0.3,1.6,0.1l4.8-2.8c0.4-0.2,0.4-0.7-0.1-0.9l-4.6-2.7
	c-0.4-0.3-1.2-0.3-1.6-0.1l-4.8,2.8C579.1,185.6,579.1,185.9,579.6,186.2z"/>
<path class="st24" d="M587.9,181.4l4.6,2.7c0.4,0.3,1.2,0.3,1.6,0.1l4.8-2.8c0.4-0.2,0.4-0.7-0.1-0.9l-4.6-2.7
	c-0.4-0.3-1.2-0.3-1.6-0.1l-4.8,2.8C587.4,180.7,587.5,181.1,587.9,181.4z"/>
<path class="st13" d="M278.1,441.8l119-68.7c1.5-0.8,1.3-2.4-0.4-3.3L217.8,266.3c-1.7-1-4.3-1.1-5.8-0.2L93,334.7
	c-1.5,0.8-1.3,2.4,0.4,3.3l178.9,103.5C274.1,442.5,276.6,442.6,278.1,441.8z"/>
<g>
	<path class="st14" d="M92,299.2l5,0.9l115-66.4c1.5-0.8,4.1-0.7,5.8,0.2l171.5,99.2l8.8,1.6v2.9l0,0c0,0.5-0.3,1.1-1,1.5l-119,68.7
		c-1.5,0.8-4.1,0.7-5.8-0.2L93.4,304.1c-1-0.5-1.4-1.2-1.4-1.8l0,0V299.2L92,299.2z"/>
	
		<radialGradient id="SVGID_20_" cx="1948.9795" cy="821.4158" r="350.5631" gradientTransform="matrix(-1 0 0 1 2014.1287 -518.9419)" gradientUnits="userSpaceOnUse">
		<stop  offset="0" style="stop-color:#42E8E0"/>
		<stop  offset="1.567662e-02" style="stop-color:#40D8D7"/>
		<stop  offset="6.066751e-02" style="stop-color:#3AAFC0"/>
		<stop  offset="0.1112" style="stop-color:#3589AC"/>
		<stop  offset="0.1662" style="stop-color:#30699A"/>
		<stop  offset="0.227" style="stop-color:#2C4D8B"/>
		<stop  offset="0.2957" style="stop-color:#29377F"/>
		<stop  offset="0.3758" style="stop-color:#272675"/>
		<stop  offset="0.475" style="stop-color:#251B6F"/>
		<stop  offset="0.614" style="stop-color:#24146B"/>
		<stop  offset="1" style="stop-color:#24126A"/>
	</radialGradient>
	<path class="st28" d="M92,299.2l5,0.9l115-66.4c1.5-0.8,4.1-0.7,5.8,0.2l171.5,99.2l8.8,1.6v2.9l0,0c0,0.5-0.3,1.1-1,1.5l-119,68.7
		c-1.5,0.8-4.1,0.7-5.8-0.2L93.4,304.1c-1-0.5-1.4-1.2-1.4-1.8l0,0V299.2L92,299.2z"/>
	
		<radialGradient id="SVGID_21_" cx="1723.6304" cy="935.8415" r="426.685" gradientTransform="matrix(-1 0 0 1 2014.1287 -518.9419)" gradientUnits="userSpaceOnUse">
		<stop  offset="0" style="stop-color:#42E8E0"/>
		<stop  offset="0.1022" style="stop-color:#3CCACE"/>
		<stop  offset="0.3445" style="stop-color:#2F87A5"/>
		<stop  offset="0.564" style="stop-color:#255385"/>
		<stop  offset="0.7534" style="stop-color:#1E2D6E"/>
		<stop  offset="0.905" style="stop-color:#1A1660"/>
		<stop  offset="1" style="stop-color:#180D5B"/>
	</radialGradient>
	<path class="st29" d="M93.4,302.3l178.9,103.5c1.7,1,4.3,1.1,5.8,0.2l119-68.7c0.7-0.4,1-0.9,1-1.5l0,0v0.7l0,0
		c0,0.5-0.3,1.1-1,1.5l-119,68.7c-1.5,0.8-4.1,0.7-5.8-0.2L93.4,303.1c-1-0.5-1.4-1.2-1.4-1.8l0,0v-0.7l0,0
		C92.1,301.1,92.6,301.8,93.4,302.3z"/>
	<path class="st14" d="M278.1,404.9l119-68.7c1.5-0.8,1.3-2.4-0.4-3.3L217.8,229.4c-1.7-1-4.3-1.1-5.8-0.2L93.1,297.8
		c-1.5,0.8-1.3,2.4,0.4,3.3l178.9,103.5C274.1,405.6,276.6,405.7,278.1,404.9z"/>
	
		<linearGradient id="SVGID_22_" gradientUnits="userSpaceOnUse" x1="1616.0182" y1="835.9501" x2="1922.0392" y2="835.9501" gradientTransform="matrix(-1 0 0 1 2014.1287 -518.9419)">
		<stop  offset="0" style="stop-color:#180D5B"/>
		<stop  offset="9.497967e-02" style="stop-color:#1A1660"/>
		<stop  offset="0.2466" style="stop-color:#1E2D6E"/>
		<stop  offset="0.436" style="stop-color:#255385"/>
		<stop  offset="0.6555" style="stop-color:#2F87A5"/>
		<stop  offset="0.8978" style="stop-color:#3CCACE"/>
		<stop  offset="1" style="stop-color:#42E8E0"/>
	</linearGradient>
	<path class="st30" d="M278.1,404.9l119-68.7c1.5-0.8,1.3-2.4-0.4-3.3L217.8,229.4c-1.7-1-4.3-1.1-5.8-0.2L93.1,297.8
		c-1.5,0.8-1.3,2.4,0.4,3.3l178.9,103.5C274.1,405.6,276.6,405.7,278.1,404.9z"/>
</g>
<g class="st18">
	
		<radialGradient id="SVGID_23_" cx="1612.9519" cy="864.3585" r="123.3669" gradientTransform="matrix(-1 0 0 1 2014.1287 -518.9419)" gradientUnits="userSpaceOnUse">
		<stop  offset="0" style="stop-color:#42E8E0"/>
		<stop  offset="0.1022" style="stop-color:#3CCACE"/>
		<stop  offset="0.3445" style="stop-color:#2F87A5"/>
		<stop  offset="0.564" style="stop-color:#255385"/>
		<stop  offset="0.7534" style="stop-color:#1E2D6E"/>
		<stop  offset="0.905" style="stop-color:#1A1660"/>
		<stop  offset="1" style="stop-color:#180D5B"/>
	</radialGradient>
	<path class="st31" d="M92,298.7l5,0.9l115-66.5c1.5-0.8,4.1-0.7,5.8,0.2l171.5,99.2l8.8,1.6v0.5l0,0c0,0.5-0.3,1.1-1,1.5l-119,68.8
		c-1.5,0.8-4.1,0.7-5.8-0.2L93.4,301.2c-1-0.5-1.4-1.2-1.4-1.8l0,0V298.7L92,298.7z"/>
	
		<radialGradient id="SVGID_24_" cx="1619.8544" cy="836.9073" r="254.292" gradientTransform="matrix(-1 0 0 1 2014.1287 -518.9419)" gradientUnits="userSpaceOnUse">
		<stop  offset="0" style="stop-color:#42E8E0"/>
		<stop  offset="0.1022" style="stop-color:#3CCACE"/>
		<stop  offset="0.3445" style="stop-color:#2F87A5"/>
		<stop  offset="0.564" style="stop-color:#255385"/>
		<stop  offset="0.7534" style="stop-color:#1E2D6E"/>
		<stop  offset="0.905" style="stop-color:#1A1660"/>
		<stop  offset="1" style="stop-color:#180D5B"/>
	</radialGradient>
	<path class="st32" d="M278.1,404.3l119-68.7c1.5-0.8,1.3-2.4-0.4-3.3L217.8,228.8c-1.7-1-4.3-1.1-5.8-0.2L93,297.2
		c-1.5,0.8-1.3,2.4,0.4,3.3l179,103.5C274.1,405,276.6,405.1,278.1,404.3z"/>
	<path class="st14" d="M278.1,404.3l119-68.7c1.5-0.8,1.3-2.4-0.4-3.3L217.8,228.8c-1.7-1-4.3-1.1-5.8-0.2L93,297.2
		c-1.5,0.8-1.3,2.4,0.4,3.3l179,103.5C274.1,405,276.6,405.1,278.1,404.3z"/>
</g>
<radialGradient id="SVGID_25_" cx="1640.0261" cy="849.1285" r="208.1037" gradientTransform="matrix(-1 0 0 1 2014.1287 -518.9419)" gradientUnits="userSpaceOnUse">
	<stop  offset="0" style="stop-color:#42E8E0"/>
	<stop  offset="0.1022" style="stop-color:#3CCACE"/>
	<stop  offset="0.3445" style="stop-color:#2F87A5"/>
	<stop  offset="0.564" style="stop-color:#255385"/>
	<stop  offset="0.7534" style="stop-color:#1E2D6E"/>
	<stop  offset="0.905" style="stop-color:#1A1660"/>
	<stop  offset="1" style="stop-color:#180D5B"/>
</radialGradient>
<path class="st33" d="M278.1,404.3l119-68.7c1.5-0.8,1.3-2.4-0.4-3.3L217.8,228.8c-1.7-1-4.3-1.1-5.8-0.2L93,297.2
	c-1.5,0.8-1.3,2.4,0.4,3.3l179,103.5C274.1,405,276.6,405.1,278.1,404.3z"/>
<radialGradient id="SVGID_26_" cx="1889.5448" cy="736.2252" r="415.1886" gradientTransform="matrix(-1 0 0 1 2014.1287 -518.9419)" gradientUnits="userSpaceOnUse">
	<stop  offset="0" style="stop-color:#01A99F"/>
	<stop  offset="0.1721" style="stop-color:#01928C"/>
	<stop  offset="0.534" style="stop-color:#01565B"/>
	<stop  offset="1" style="stop-color:#010116"/>
</radialGradient>
<path class="st34" d="M278.1,404.3l119-68.7c1.5-0.8,1.3-2.4-0.4-3.3L217.8,228.8c-1.7-1-4.3-1.1-5.8-0.2L93,297.2
	c-1.5,0.8-1.3,2.4,0.4,3.3l179,103.5C274.1,405,276.6,405.1,278.1,404.3z"/>
<radialGradient id="SVGID_27_" cx="1613.1947" cy="849.1278" r="365.5391" gradientTransform="matrix(-1 0 0 1 2014.1287 -518.9419)" gradientUnits="userSpaceOnUse">
	<stop  offset="0" style="stop-color:#42E8E0"/>
	<stop  offset="0.1022" style="stop-color:#3CCACE"/>
	<stop  offset="0.3445" style="stop-color:#2F87A5"/>
	<stop  offset="0.564" style="stop-color:#255385"/>
	<stop  offset="0.7534" style="stop-color:#1E2D6E"/>
	<stop  offset="0.905" style="stop-color:#1A1660"/>
	<stop  offset="1" style="stop-color:#180D5B"/>
</radialGradient>
<path class="st35" d="M277.5,404.2l119-68.7c1.6-1,1.8-2-0.4-3.3l-179-103.5c-0.7-0.4-1.7-0.7-2.7-0.8c1.2,0,2.4,0.3,3.3,0.8
	l178.9,103.5c1.7,1,1.8,2.4,0.4,3.3l-119,68.8c-0.8,0.4-1.9,0.7-3.1,0.5C276,404.8,276.8,404.6,277.5,404.2z"/>
<g>
	<g>
		<path class="st24" d="M338,329.7l4.6,2.7c0.4,0.3,1.2,0.3,1.6,0.1l4.8-2.8c0.4-0.2,0.4-0.7-0.1-0.9l-4.6-2.7
			c-0.4-0.3-1.2-0.3-1.6-0.1l-4.8,2.8C337.4,329.1,337.5,329.5,338,329.7z"/>
		<path class="st24" d="M225.2,314.1l48.3,27.9c0.4,0.3,1.2,0.3,1.6,0.1l4.8-2.8c0.4-0.2,0.4-0.7-0.1-0.9l-48.2-27.9
			c-0.4-0.3-1.2-0.3-1.6-0.1l-4.8,2.8C224.7,313.4,224.8,313.8,225.2,314.1z"/>
		<path class="st24" d="M189.5,293.5l4.6,2.7c0.4,0.3,1.2,0.3,1.6,0.1l4.8-2.8c0.4-0.2,0.4-0.7-0.1-0.9l-4.6-2.7
			c-0.4-0.3-1.2-0.3-1.6-0.1l-4.8,2.8C188.9,292.8,189,293.2,189.5,293.5z"/>
		<path class="st24" d="M180.4,288.2l4.6,2.7c0.4,0.3,1.2,0.3,1.6,0.1l4.8-2.8c0.4-0.2,0.4-0.7-0.1-0.9l-4.6-2.7
			c-0.4-0.3-1.2-0.3-1.6-0.1l-4.8,2.8C179.8,287.6,179.9,287.9,180.4,288.2z"/>
		<path class="st24" d="M188.5,283.6l4.6,2.7c0.4,0.3,1.2,0.3,1.6,0.1l4.8-2.8c0.4-0.2,0.4-0.7-0.1-0.9l-4.6-2.7
			c-0.4-0.3-1.2-0.3-1.6-0.1l-4.8,2.8C188,282.8,188,283.3,188.5,283.6z"/>
		<path class="st24" d="M171.1,282.9l4.6,2.7c0.4,0.3,1.2,0.3,1.6,0.1l4.8-2.8c0.4-0.2,0.4-0.7-0.1-0.9l-4.6-2.7
			c-0.4-0.3-1.2-0.3-1.6-0.1L171,282C170.6,282.2,170.7,282.6,171.1,282.9z"/>
	</g>
	<g>
		<path class="st24" d="M291.3,352.3l8.7,5c0.4,0.3,1.2,0.3,1.6,0.1l4.8-2.8c0.4-0.2,0.4-0.7-0.1-0.9l-8.7-5
			c-0.4-0.3-1.2-0.3-1.6-0.1l-4.8,2.8C290.9,351.6,290.9,352,291.3,352.3z"/>
		<path class="st24" d="M278.1,344.7l8.7,5c0.4,0.3,1.2,0.3,1.6,0.1l4.8-2.8c0.4-0.2,0.4-0.7-0.1-0.9l-8.7-5
			c-0.4-0.3-1.2-0.3-1.6-0.1l-4.8,2.8C277.6,343.9,277.6,344.4,278.1,344.7z"/>
		<path class="st24" d="M211.6,306.3l8.7,5c0.4,0.3,1.2,0.3,1.6,0.1l4.8-2.8c0.4-0.2,0.4-0.7-0.1-0.9l-8.7-5
			c-0.4-0.3-1.2-0.3-1.6-0.1l-4.8,2.8C211.1,305.6,211.2,306,211.6,306.3z"/>
		<path class="st24" d="M198.4,298.6l8.7,5c0.4,0.3,1.2,0.3,1.6,0.1l4.8-2.8c0.4-0.2,0.4-0.7-0.1-0.9l-8.7-5
			c-0.4-0.3-1.2-0.3-1.6-0.1l-4.8,2.8C197.9,297.9,198,298.4,198.4,298.6z"/>
		<path class="st24" d="M322.3,320.7l4.6,2.7c0.4,0.3,1.2,0.3,1.6,0.1l4.8-2.8c0.4-0.2,0.4-0.7-0.1-0.9l-4.6-2.7
			c-0.4-0.3-1.2-0.3-1.6-0.1l-4.8,2.8C321.8,320,321.8,320.4,322.3,320.7z"/>
		<path class="st24" d="M205.1,263.3L334,337.8c0.4,0.3,1.2,0.3,1.6,0.1l4.8-2.8c0.4-0.2,0.4-0.7-0.1-0.9l-128.8-74.5
			c-0.4-0.3-1.2-0.3-1.6-0.1l-4.8,2.8C204.5,262.6,204.6,263,205.1,263.3z"/>
		<path class="st24" d="M196.5,268.3l128.9,74.5c0.4,0.3,1.2,0.3,1.6,0.1l4.8-2.8c0.4-0.2,0.4-0.7-0.1-0.9l-128.9-74.5
			c-0.4-0.3-1.2-0.3-1.6-0.1l-4.8,2.8C196,267.6,196,268,196.5,268.3z"/>
		<path class="st24" d="M187.8,273.2l128.9,74.5c0.4,0.3,1.2,0.3,1.6,0.1l4.8-2.8c0.4-0.2,0.4-0.7-0.1-0.9l-128.8-74.5
			c-0.4-0.3-1.2-0.3-1.6-0.1l-4.8,2.8C187.3,272.5,187.4,273,187.8,273.2z"/>
		<path class="st24" d="M197.6,288.8l110.6,63.8c0.4,0.3,1.2,0.3,1.6,0.1l4.8-2.8c0.4-0.2,0.4-0.7-0.1-0.9l-110.6-63.8
			c-0.4-0.3-1.2-0.3-1.6-0.1l-4.8,2.8C197.1,288.2,197.1,288.5,197.6,288.8z"/>
		<path class="st24" d="M313.7,315.7l4.6,2.7c0.4,0.3,1.2,0.3,1.6,0.1l4.8-2.8c0.4-0.2,0.4-0.7-0.1-0.9l-4.6-2.7
			c-0.4-0.3-1.2-0.3-1.6-0.1l-4.8,2.8C313.2,315.1,313.2,315.4,313.7,315.7z"/>
		<path class="st24" d="M305.1,310.8l4.6,2.7c0.4,0.3,1.2,0.3,1.6,0.1l4.8-2.8c0.4-0.2,0.4-0.7-0.1-0.9l-4.6-2.7
			c-0.4-0.3-1.2-0.3-1.6-0.1l-4.8,2.8C304.5,310.1,304.6,310.5,305.1,310.8z"/>
		<path class="st24" d="M296.5,305.8l4.6,2.7c0.4,0.3,1.2,0.3,1.6,0.1l4.8-2.8c0.4-0.2,0.4-0.7-0.1-0.9l-4.6-2.7
			c-0.4-0.3-1.2-0.3-1.6-0.1l-4.8,2.8C296,305.2,296,305.5,296.5,305.8z"/>
		<path class="st24" d="M276.7,294.4l4.6,2.7c0.4,0.3,1.2,0.3,1.6,0.1l4.8-2.8c0.4-0.2,0.4-0.7-0.1-0.9l-4.6-2.7
			c-0.4-0.3-1.2-0.3-1.6-0.1l-4.8,2.8C276.2,293.7,276.3,294.1,276.7,294.4z"/>
		<path class="st24" d="M268.1,289.4l4.6,2.7c0.4,0.3,1.2,0.3,1.6,0.1l4.8-2.8c0.4-0.2,0.4-0.7-0.1-0.9l-4.6-2.7
			c-0.4-0.3-1.2-0.3-1.6-0.1l-4.8,2.8C267.6,288.7,267.7,289.2,268.1,289.4z"/>
		<path class="st24" d="M259.6,284.5l4.6,2.7c0.4,0.3,1.2,0.3,1.6,0.1l4.8-2.8c0.4-0.2,0.4-0.7-0.1-0.9l-4.6-2.7
			c-0.4-0.3-1.2-0.3-1.6-0.1l-4.8,2.8C259,283.8,259,284.2,259.6,284.5z"/>
		<path class="st24" d="M251,279.5l4.6,2.7c0.4,0.3,1.2,0.3,1.6,0.1l4.8-2.8c0.4-0.2,0.4-0.7-0.1-0.9l-4.6-2.7
			c-0.4-0.3-1.2-0.3-1.6-0.1l-4.8,2.8C250.5,278.8,250.5,279.3,251,279.5z"/>
		<path class="st24" d="M231.2,268.1l4.6,2.7c0.4,0.3,1.2,0.3,1.6,0.1l4.8-2.8c0.4-0.2,0.4-0.7-0.1-0.9l-4.6-2.7
			c-0.4-0.3-1.2-0.3-1.6-0.1l-4.8,2.8C230.6,267.4,230.7,267.8,231.2,268.1z"/>
		<path class="st24" d="M179.5,278l4.6,2.7c0.4,0.3,1.2,0.3,1.6,0.1l4.8-2.8c0.4-0.2,0.4-0.7-0.1-0.9l-4.6-2.7
			c-0.4-0.3-1.2-0.3-1.6-0.1l-4.8,2.8C178.9,277.4,179,277.8,179.5,278z"/>
		<path class="st24" d="M222.6,263.2l4.6,2.7c0.4,0.3,1.2,0.3,1.6,0.1l4.8-2.8c0.4-0.2,0.4-0.7-0.1-0.9l-4.6-2.7
			c-0.4-0.3-1.2-0.3-1.6-0.1l-4.8,2.8C222.1,262.5,222.1,262.9,222.6,263.2z"/>
		<path class="st24" d="M214,258.2l4.6,2.7c0.4,0.3,1.2,0.3,1.6,0.1l4.8-2.8c0.4-0.2,0.4-0.7-0.1-0.9l-4.6-2.7
			c-0.4-0.3-1.2-0.3-1.6-0.1l-4.8,2.8C213.5,257.5,213.6,257.9,214,258.2z"/>
	</g>
</g>
<path class="st14" d="M218.8,222.8l14.7-126.3c0-0.3,0.1-0.5,0.1-0.7l-1.3-0.6l3-1.7l0,0c1.3-0.7,2.9-0.8,4.3,0l177.2,102.4
	c1.7,1,2.6,2.8,2.4,4.7l-14.7,126.3c-0.1,1.6-1.1,2.7-2.4,3.3l-2.9,1.6l0.4-1.5c-0.4-0.1-0.9-0.2-1.3-0.5L221.2,227.5
	C219.5,226.5,218.6,224.7,218.8,222.8z"/>
<linearGradient id="SVGID_28_" gradientUnits="userSpaceOnUse" x1="1723.2303" y1="678.4796" x2="1597.4146" y2="912.0189" gradientTransform="matrix(-1 0 0 1 2014.1287 -518.9419)">
	<stop  offset="0" style="stop-color:#42E8E0"/>
	<stop  offset="7.396981e-02" style="stop-color:#3ED2D3"/>
	<stop  offset="0.2847" style="stop-color:#3297AF"/>
	<stop  offset="0.3474" style="stop-color:#2F87A5"/>
	<stop  offset="0.5646" style="stop-color:#255385"/>
	<stop  offset="0.7537" style="stop-color:#1E2D6E"/>
	<stop  offset="0.9051" style="stop-color:#1A1560"/>
	<stop  offset="1" style="stop-color:#180D5B"/>
</linearGradient>
<path class="st36" d="M218.8,222.8l14.7-126.3c0-0.3,0.1-0.5,0.1-0.7l-1.3-0.6l3-1.7l0,0c1.3-0.7,2.9-0.8,4.3,0l177.2,102.4
	c1.7,1,2.6,2.8,2.4,4.7l-14.7,126.3c-0.1,1.6-1.1,2.7-2.4,3.3l-2.9,1.6l0.4-1.5c-0.4-0.1-0.9-0.2-1.3-0.5L221.2,227.5
	C219.5,226.5,218.6,224.7,218.8,222.8z"/>
<path class="st37" d="M217.9,229.4l177.2,102.4c2.7,1.6,6.1-0.1,6.4-3.2l14.7-126.3c0.2-1.9-0.7-3.8-2.4-4.7L236.6,95.3
	c-2.7-1.6-6.1,0.1-6.4,3.2l-14.7,126.3C215.2,226.6,216.1,228.5,217.9,229.4z"/>
<g>
	<g>
		<g>
			<g>
				<defs>
					<path id="SVGID_29_" d="M218.2,229.9l-1.5-0.9c-0.1-0.1-0.2-0.3-0.1-0.4c0.1-0.1,0.3-0.2,0.4-0.1l1.5,0.9L218.2,229.9z"/>
				</defs>
				<clipPath id="SVGID_30_">
					<use xlink:href="#SVGID_29_"  style="overflow:visible;"/>
				</clipPath>
				<g class="st38">
					
						<image style="overflow:visible;enable-background:new    ;" width="5" height="4" xlink:href="../343B704C.png"  transform="matrix(0.7396 0 0 0.7396 215.2623 227.5767)">
					</image>
				</g>
			</g>
		</g>
	</g>
	
		<image style="overflow:visible;enable-background:new    ;" width="239" height="139" xlink:href="../343B7041.png"  transform="matrix(0.7396 0 0 0.7396 216.0019 228.3163)">
	</image>
	<g>
		<g>
			<g>
				<defs>
					<path id="SVGID_31_" d="M391.2,329.2l0.5,0.3c0.1,0.1,0.2,0.3,0.1,0.4s-0.3,0.2-0.4,0.1l-0.5-0.3L391.2,329.2z"/>
				</defs>
				<clipPath id="SVGID_32_">
					<use xlink:href="#SVGID_31_"  style="overflow:visible;"/>
				</clipPath>
				<g class="st39">
					
						<image style="overflow:visible;enable-background:new    ;" width="5" height="4" xlink:href="../343B7042.png"  transform="matrix(0.7396 0 0 0.7396 390.5489 328.9027)">
					</image>
				</g>
			</g>
		</g>
	</g>
</g>
<g>
	<path class="st40" d="M273.5,393.7c-1.1,0.6-1.1,1.6,0,2.3c1.1,0.6,2.9,0.6,3.9,0c1.1-0.6,1.1-1.6,0-2.3
		C276.4,393,274.6,393,273.5,393.7z"/>
	<path class="st41" d="M267.4,390.1c-1.1,0.6-1.1,1.6,0,2.3c1.1,0.6,2.9,0.6,3.9,0c1.1-0.6,1.1-1.6,0-2.3S268.4,389.5,267.4,390.1z"
		/>
	<path class="st42" d="M261.3,386.6c-1.1,0.6-1.1,1.6,0,2.3c1.1,0.6,2.9,0.6,3.9,0c1.1-0.6,1.1-1.6,0-2.3
		C264.1,386,262.3,386,261.3,386.6z"/>
</g>
<g>
	<polygon class="st43" points="273.8,92.9 256.5,83.1 256.7,79.7 274,89.5 	"/>
	<polygon class="st43" points="282.7,97.9 276.5,94.4 276.6,91 282.9,94.5 	"/>
	<polygon class="st43" points="289.6,101.8 285.4,99.5 285.5,96.1 289.8,98.4 	"/>
	<polygon class="st43" points="265.6,96.2 256.1,90.8 256.2,87.4 265.7,92.8 	"/>
	<polygon class="st43" points="279.8,104.3 268.2,97.7 268.4,94.3 280,100.9 	"/>
	<polygon class="st43" points="286.6,108.2 282.4,105.8 282.6,102.4 286.9,104.8 	"/>
	<polygon class="st43" points="293.2,111.9 289,109.5 289.1,106.1 293.4,108.5 	"/>
	<polygon class="st24" points="262.5,102.5 255.7,98.6 255.9,95.2 262.7,99.1 	"/>
	<polygon class="st24" points="267.5,105.3 265.2,104 265.3,100.6 267.7,101.9 	"/>
	<polygon class="st43" points="274.4,109.2 270.1,106.8 270.4,103.4 274.6,105.8 	"/>
	<polygon class="st43" points="280.5,120.7 255.3,106.4 255.4,103 280.7,117.3 	"/>
	<polygon class="st43" points="289.4,125.7 283.2,122.2 283.4,118.8 289.6,122.3 	"/>
	<polygon class="st43" points="261.7,118 254.9,114.2 255.1,110.8 261.9,114.6 	"/>
	<polygon class="st43" points="277.8,127.1 264.4,119.6 264.5,116.2 278,123.7 	"/>
	<polygon class="st43" points="284.6,131.1 280.4,128.7 280.6,125.3 284.9,127.7 	"/>
	<polygon class="st43" points="268.4,129.9 254.5,122 254.7,118.6 268.7,126.5 	"/>
	<polygon class="st24" points="281.2,137.1 271.1,131.4 271.3,128 281.5,133.7 	"/>
	<polygon class="st43" points="290.7,142.5 283.9,138.7 284,135.2 290.9,139.1 	"/>
	<polygon class="st43" points="258.8,132.4 254.1,129.7 254.2,126.3 259,129 	"/>
	<polygon class="st43" points="267.7,137.5 261.5,133.9 261.6,130.5 267.8,134.1 	"/>
	<polygon class="st43" points="280.4,144.7 270.4,139 270.5,135.6 280.6,141.3 	"/>
	<polygon class="st43" points="268.1,145.7 253.6,137.5 253.9,134.1 268.4,142.3 	"/>
	<polygon class="st43" points="284.3,154.9 270.8,147.3 271,143.9 284.6,151.5 	"/>
	<polygon class="st24" points="291.3,158.9 287,156.4 287.2,153 291.4,155.5 	"/>
	<polygon class="st43" points="297.9,162.6 293.7,160.2 293.8,156.8 298.1,159.2 	"/>
	<polygon class="st43" points="261.9,150.2 253.3,145.3 253.4,141.9 262.2,146.8 	"/>
	<polygon class="st24" points="301.4,108.6 313.5,115.4 313.6,112 301.6,105.2 	"/>
	<polygon class="st43" points="303.6,117.8 313,123.1 313.3,119.7 303.8,114.4 	"/>
	<polygon class="st43" points="305.9,127.1 312.7,130.9 312.8,127.5 306,123.7 	"/>
	<polygon class="st43" points="302.3,133.1 312.3,138.7 312.4,135.3 302.5,129.7 	"/>
	<polygon class="st43" points="305.1,142.6 311.9,146.5 312.1,143.1 305.2,139.2 	"/>
	<polygon class="st43" points="302.8,149.3 311.5,154.3 311.6,150.9 303,145.9 	"/>
	<polygon class="st43" points="306.3,159.4 311,162 311.3,158.6 306.5,156 	"/>
	<polygon class="st43" points="301.5,164.6 310.7,169.8 310.8,166.4 301.6,161.2 	"/>
	<polygon class="st43" points="301.6,172.7 310.3,177.6 310.4,174.2 301.8,169.3 	"/>
	<polygon class="st43" points="268.3,153.8 264.6,151.7 264.8,148.3 268.4,150.4 	"/>
	<polygon class="st43" points="279.2,160.1 271,155.3 271.1,151.9 279.5,156.6 	"/>
	<polygon class="st43" points="341.1,130.9 323.8,121.1 324,117.7 341.3,127.5 	"/>
	<polygon class="st43" points="350,135.9 343.8,132.4 344,129 350.2,132.5 	"/>
	<polygon class="st24" points="356.9,139.9 352.7,137.4 352.8,134 357.1,136.5 	"/>
	<polygon class="st43" points="332.9,134.2 323.4,128.8 323.5,125.4 333,130.8 	"/>
	<polygon class="st43" points="347.1,142.3 335.4,135.7 335.7,132.3 347.2,138.9 	"/>
	<polygon class="st24" points="353.9,146.2 349.7,143.8 349.9,140.4 354.2,142.8 	"/>
	<polygon class="st43" points="360.5,149.9 356.3,147.5 356.5,144.1 360.7,146.5 	"/>
	<polygon class="st43" points="329.8,140.5 322.9,136.6 323.2,133.2 330,137.1 	"/>
	<polygon class="st43" points="334.8,143.3 332.5,142 332.6,138.6 335,139.9 	"/>
	<polygon class="st43" points="341.7,147.3 337.4,144.8 337.6,141.4 341.9,143.9 	"/>
	<polygon class="st43" points="347.8,158.7 322.6,144.4 322.7,141 348,155.3 	"/>
	<polygon class="st43" points="356.7,163.7 350.5,160.2 350.6,156.8 356.9,160.3 	"/>
	<polygon class="st43" points="329,156.1 322.1,152.2 322.4,148.8 329.2,152.7 	"/>
	<polygon class="st43" points="345.1,165.2 331.7,157.5 331.8,154.1 345.2,161.8 	"/>
	<polygon class="st43" points="351.9,169.1 347.7,166.7 347.9,163.2 352.2,165.7 	"/>
	<polygon class="st24" points="335.7,167.9 321.8,160 321.9,156.6 336,164.5 	"/>
	<polygon class="st43" points="348.5,175.1 338.4,169.4 338.6,166 348.7,171.7 	"/>
	<polygon class="st43" points="358,180.5 351.2,176.6 351.3,173.2 358.2,177.1 	"/>
	<polygon class="st43" points="326.1,170.4 321.4,167.7 321.5,164.3 326.3,167 	"/>
	<polygon class="st43" points="335,175.5 328.7,172 328.9,168.6 335.2,172 	"/>
	<polygon class="st24" points="347.7,182.7 337.7,177 337.8,173.6 347.9,179.3 	"/>
	<polygon class="st43" points="335.4,183.7 321,175.5 321.2,172.1 335.6,180.3 	"/>
	<polygon class="st43" points="351.6,193 338.1,185.3 338.3,181.9 351.9,189.6 	"/>
	<polygon class="st43" points="358.5,196.8 354.3,194.4 354.5,191 358.7,193.4 	"/>
	<polygon class="st43" points="365.2,200.6 361,198.2 361.1,194.8 365.3,197.2 	"/>
	<polygon class="st43" points="329.2,188.2 320.6,183.3 320.7,179.9 329.4,184.8 	"/>
	<polygon class="st24" points="368.7,146.6 380.8,153.4 380.9,150 368.9,143.1 	"/>
	<polygon class="st43" points="370.9,155.8 380.3,161.2 380.6,157.8 371.1,152.4 	"/>
	<polygon class="st43" points="373.1,165.1 380,168.9 380.1,165.5 373.3,161.7 	"/>
	<polygon class="st43" points="369.6,171.1 379.5,176.7 379.8,173.3 369.8,167.7 	"/>
	<polygon class="st43" points="372.3,180.6 379.2,184.5 379.3,181.1 372.5,177.2 	"/>
	<polygon class="st43" points="370.1,187.3 378.8,192.3 378.9,188.9 370.3,183.9 	"/>
	<polygon class="st43" points="373.6,197.4 378.3,200.1 378.5,196.7 373.8,194 	"/>
	<polygon class="st43" points="368.8,202.7 378,207.8 378.1,204.4 369,199.2 	"/>
	<polygon class="st43" points="368.9,210.7 377.5,215.6 377.8,212.2 369,207.3 	"/>
	<polygon class="st24" points="335.6,191.9 331.9,189.7 332,186.3 335.7,188.5 	"/>
	<polygon class="st43" points="346.5,198.1 338.3,193.3 338.4,189.9 346.7,194.7 	"/>
	<polygon class="st43" points="270.2,162.9 252.9,153.1 253.1,149.7 270.4,159.5 	"/>
	<polygon class="st43" points="279.1,168 272.9,164.5 273,161.1 279.3,164.6 	"/>
	<polygon class="st43" points="286,171.9 281.8,169.5 282,166.1 286.2,168.5 	"/>
	<polygon class="st43" points="261.9,166.3 252.5,160.9 252.7,157.5 262.1,162.9 	"/>
	<polygon class="st43" points="276.1,174.3 264.6,167.7 264.7,164.3 276.4,170.9 	"/>
	<polygon class="st43" points="283.1,178.2 278.8,175.9 279,172.4 283.2,174.8 	"/>
	<polygon class="st43" points="289.6,181.9 285.4,179.6 285.5,176.2 289.8,178.5 	"/>
	<polygon class="st43" points="258.9,172.6 252.1,168.7 252.2,165.3 259.1,169.1 	"/>
	<polygon class="st43" points="263.9,175.4 261.6,174.1 261.7,170.6 264.1,172 	"/>
	<polygon class="st43" points="270.8,179.3 266.5,176.9 266.7,173.5 271,175.9 	"/>
	<polygon class="st43" points="276.9,190.8 251.7,176.5 251.9,173.1 277.1,187.3 	"/>
	<polygon class="st43" points="285.8,195.8 279.5,192.3 279.8,188.9 286,192.4 	"/>
	<polygon class="st43" points="258.1,188.2 251.3,184.2 251.4,180.8 258.3,184.8 	"/>
	<polygon class="st43" points="274.1,197.3 260.7,189.6 261,186.2 274.4,193.9 	"/>
	<polygon class="st43" points="281.1,201.2 276.8,198.7 277,195.3 281.2,197.7 	"/>
	<polygon class="st43" points="264.9,200 250.8,192 251.1,188.6 265,196.6 	"/>
	<polygon class="st43" points="277.6,207.2 267.6,201.5 267.7,198.1 277.8,203.8 	"/>
	<polygon class="st43" points="287.2,212.6 280.3,208.7 280.5,205.3 287.3,209.2 	"/>
	<polygon class="st43" points="255.2,202.5 250.5,199.8 250.6,196.4 255.3,199.1 	"/>
	<polygon class="st43" points="264.1,207.5 257.9,204 258,200.6 264.3,204.1 	"/>
	<polygon class="st43" points="276.8,214.7 266.7,209 266.9,205.6 277,211.3 	"/>
	<polygon class="st43" points="264.5,215.8 250.1,207.6 250.2,204.2 264.7,212.4 	"/>
	<polygon class="st43" points="280.8,225 267.2,217.3 267.4,213.9 280.9,221.6 	"/>
	<polygon class="st43" points="287.7,228.9 283.5,226.5 283.6,223.1 287.8,225.5 	"/>
	<polygon class="st43" points="294.3,232.7 290,230.2 290.2,226.8 294.5,229.3 	"/>
	<polygon class="st43" points="258.4,220.3 249.7,215.4 249.9,212 258.5,216.9 	"/>
	<polygon class="st43" points="297.8,178.6 309.9,185.4 310,182 298,175.2 	"/>
	<polygon class="st43" points="300,187.9 309.5,193.2 309.6,189.8 300.2,184.5 	"/>
	<polygon class="st43" points="302.2,197.1 309,201 309.3,197.6 302.4,193.7 	"/>
	<polygon class="st43" points="298.7,203.2 308.7,208.8 308.8,205.4 298.9,199.7 	"/>
	<polygon class="st43" points="301.4,212.7 308.2,216.6 308.5,213.2 301.6,209.3 	"/>
	<polygon class="st43" points="299.2,219.4 307.9,224.3 308,220.9 299.4,216 	"/>
	<polygon class="st43" points="302.8,229.4 307.5,232.1 307.6,228.7 302.9,226 	"/>
	<polygon class="st43" points="297.9,234.7 307,239.9 307.2,236.5 298.1,231.3 	"/>
	<polygon class="st43" points="298,242.7 306.7,247.7 306.8,244.3 298.2,239.3 	"/>
	<polygon class="st43" points="264.7,223.9 261,221.8 261.2,218.4 264.9,220.5 	"/>
	<polygon class="st43" points="275.6,230.1 267.3,225.4 267.5,222 275.8,226.7 	"/>
	<polygon class="st43" points="281.3,256.6 267.3,248.7 267.5,245.3 281.5,253.2 	"/>
	<polygon class="st43" points="290.9,262 285.5,258.9 285.6,255.5 291.1,258.6 	"/>
	<polygon class="st43" points="337.5,201 320.1,191.1 320.4,187.7 337.7,197.5 	"/>
	<polygon class="st43" points="346.4,206 340.2,202.5 340.3,199.1 346.6,202.6 	"/>
	<polygon class="st43" points="353.3,209.9 349.1,207.5 349.2,204.1 353.5,206.5 	"/>
	<polygon class="st43" points="329.2,204.3 319.8,199 319.9,195.5 329.4,200.9 	"/>
	<polygon class="st43" points="343.4,212.3 331.9,205.8 332,202.4 343.7,208.9 	"/>
	<polygon class="st43" points="350.3,216.3 346.1,213.8 346.2,210.4 350.5,212.9 	"/>
	<polygon class="st43" points="356.9,220 352.7,217.6 352.8,214.2 357.1,216.6 	"/>
	<polygon class="st43" points="326.2,210.6 319.3,206.7 319.5,203.3 326.4,207.2 	"/>
	<polygon class="st43" points="331.2,213.4 328.9,212 329,208.6 331.4,210 	"/>
	<polygon class="st43" points="338.1,217.3 333.8,214.9 334,211.5 338.3,213.9 	"/>
	<polygon class="st43" points="344.2,228.8 319,214.5 319.1,211.1 344.4,225.4 	"/>
	<polygon class="st43" points="353.1,233.9 346.8,230.3 347.1,226.9 353.3,230.5 	"/>
	<polygon class="st43" points="325.4,226.2 318.6,222.3 318.7,218.8 325.6,222.7 	"/>
	<polygon class="st43" points="341.4,235.3 328.1,227.7 328.2,224.2 341.7,231.9 	"/>
	<polygon class="st43" points="348.3,239.1 344.1,236.7 344.2,233.3 348.5,235.7 	"/>
	<polygon class="st43" points="332.1,238 318.1,230 318.4,226.6 332.3,234.6 	"/>
	<polygon class="st43" points="344.9,245.2 334.8,239.5 335,236.1 345.1,241.8 	"/>
	<polygon class="st43" points="354.4,250.6 347.6,246.7 347.7,243.3 354.6,247.2 	"/>
	<polygon class="st43" points="322.5,240.5 317.8,237.8 317.9,234.4 322.7,237.1 	"/>
	<polygon class="st43" points="331.4,245.5 325.2,242 325.3,238.6 331.5,242.1 	"/>
	<polygon class="st43" points="344.1,252.7 334,247 334.2,243.6 344.2,249.3 	"/>
	<polygon class="st43" points="331.8,253.8 317.3,245.6 317.5,242.2 332,250.4 	"/>
	<polygon class="st43" points="348,263 334.5,255.3 334.6,251.9 348.2,259.6 	"/>
	<polygon class="st43" points="355,266.9 350.7,264.5 350.9,261.1 355.1,263.5 	"/>
	<polygon class="st43" points="361.6,270.7 357.3,268.3 357.5,264.9 361.8,267.2 	"/>
	<polygon class="st43" points="325.6,258.3 317,253.4 317.1,250 325.8,254.9 	"/>
	<polygon class="st43" points="365.1,216.6 377.2,223.4 377.3,220 365.3,213.2 	"/>
	<polygon class="st43" points="367.3,225.9 376.7,231.2 376.9,227.8 367.5,222.5 	"/>
	<polygon class="st43" points="369.5,235.1 376.3,239 376.5,235.6 369.7,231.7 	"/>
	<polygon class="st43" points="366,241.1 376,246.8 376.1,243.4 366.1,237.7 	"/>
	<polygon class="st43" points="368.7,250.7 375.5,254.6 375.8,251.2 368.9,247.3 	"/>
	<polygon class="st43" points="366.4,257.5 375.2,262.3 375.3,258.9 366.7,254.1 	"/>
	<polygon class="st43" points="370,267.4 374.7,270.1 374.9,266.7 370.2,264 	"/>
	<polygon class="st43" points="365.2,272.7 374.4,277.9 374.5,274.5 365.3,269.3 	"/>
	<polygon class="st43" points="365.3,280.8 373.9,285.7 374.1,282.3 365.5,277.4 	"/>
	<polygon class="st43" points="332,261.9 328.3,259.8 328.4,256.4 332.1,258.5 	"/>
	<polygon class="st43" points="342.9,268.1 334.6,263.4 334.8,260 343.1,264.7 	"/>
	<polygon class="st43" points="348.6,294.6 334.6,286.7 334.8,283.3 348.8,291.2 	"/>
	<polygon class="st43" points="358.2,300.1 352.7,297 352.9,293.5 358.4,296.7 	"/>
</g>
<g>
	<polygon class="st44" points="416.9,110.2 425.4,115.4 430.6,106.8 422,101.6 416.9,110.2 	"/>
	<polygon class="st45" points="422.4,101 430.9,106.2 436.1,97.6 427.5,92.5 422.4,101 	"/>
	<polygon class="st46" points="427.9,91.9 436.5,97.1 441.6,88.5 433,83.3 427.9,91.9 	"/>
	<polygon class="st44" points="442.2,88.8 445.6,102.6 437,97.4 442.2,88.8 	"/>
	<polygon class="st47" points="431.5,106.6 440.1,111.7 445.3,103.1 436.7,98 431.5,106.6 	"/>
	<polygon class="st48" points="431.2,107.1 439.8,112.3 434.6,120.9 431.2,107.1 	"/>
	<polygon class="st44" points="435.2,121.2 443.8,126.4 448.9,117.8 440.3,112.6 435.2,121.2 	"/>
	<polygon class="st45" points="440.7,112.1 449.3,117.2 454.4,108.7 445.8,103.5 440.7,112.1 	"/>
	<polygon class="st46" points="446.2,102.9 454.8,108.1 459.9,99.5 451.4,94.3 446.2,102.9 	"/>
	<polygon class="st49" points="474.3,143.9 482.9,149.1 487.9,140.7 479.3,135.5 474.3,143.9 	"/>
	<polygon class="st50" points="479.7,135 488.2,140.2 493.3,131.8 484.7,126.6 479.7,135 	"/>
	<polygon class="st49" points="485.1,126.1 493.6,131.2 498.7,122.8 490.1,117.7 485.1,126.1 	"/>
	<polygon class="st50" points="488.8,140.5 497.4,145.7 502.4,137.3 493.8,132.1 488.8,140.5 	"/>
	<polygon class="st50" points="494.2,131.6 502.8,136.7 507.8,128.3 499.2,123.2 494.2,131.6 	"/>
	<polygon class="st50" points="463.5,127.8 470.8,115.7 461.1,118.1 463.5,127.8 	"/>
	<polygon class="st50" points="464.1,128.2 471.4,116.1 473.9,125.8 464.1,128.2 	"/>
	<polygon class="st49" points="488.8,117 482.7,113.3 472.3,116.1 474.7,125.8 485,123.3 	"/>
	<polygon class="st49" points="473,143.1 466.9,139.5 464.5,129 474.2,126.6 476.8,136.9 	"/>
	<polygon class="st49" points="446.2,127 452.3,130.7 462.7,127.9 460.2,118.2 450,120.7 	"/>
	<polygon class="st49" points="462,100.9 468.1,104.5 470.5,115 460.8,117.4 458.2,107.1 	"/>
	<path class="st49" d="M511.9,137.7c-0.3-3.3-1.6-6.5-3.6-9.1l-5,8.4l6.7,4L511.9,137.7z"/>
	<path class="st49" d="M509.6,141.6l-6.7-4l-5,8.4c3.3,0.6,6.7,0.2,9.8-1.1L509.6,141.6z"/>
</g>
</svg>
